# xmcd
#
# Track frame offsets: 
#        150
#        12585
#        24603
#        43633
#        54039
#        62045
#        79014
#        92269
#        105619
#        118069
#        130519
#        142203
#
# Disc length: 1955 seconds
#
# Revision: 0
# Processed by: cddbd v1.5.2PL0 Copyright (c) Steve Scherf et al.
# Submitted via: ExactAudioCopy v0.95b3
#
DISCID=9607a10c
DTITLE=Cass John Michelle Dennie - Cass John Michelle Dennie (mono vin
DTITLE=yl) 
DYEAR=1900
DGENRE=
TTITLE0=No Salt On Her Tail
TTITLE1=Trip Stumble And Fall
TTITLE2=Dancing Bear
TTITLE3=Words Of Love
TTITLE4=My Heart Stood Still
TTITLE5=Dancing In The Street
TTITLE6=I Saw Her Again
TTITLE7=Strange Young Girls
TTITLE8=I Can't Wait
TTITLE9=Even If I Could
TTITLE10=That Kind Of Girl
TTITLE11=Once Was A Time I Thought
EXTD=
EXTT0=
EXTT1=
EXTT2=
EXTT3=
EXTT4=
EXTT5=
EXTT6=
EXTT7=
EXTT8=
EXTT9=
EXTT10=
EXTT11=
PLAYORDER=
